<?xml version="1.0" encoding="UTF-8" standalone="no"?>
<!-- Created with Inkscape (http://www.inkscape.org/) -->

<svg
   xmlns:dc="http://purl.org/dc/elements/1.1/"
   xmlns:cc="http://creativecommons.org/ns#"
   xmlns:rdf="http://www.w3.org/1999/02/22-rdf-syntax-ns#"
   xmlns:svg="http://www.w3.org/2000/svg"
   xmlns="http://www.w3.org/2000/svg"
   xmlns:sodipodi="http://sodipodi.sourceforge.net/DTD/sodipodi-0.dtd"
   xmlns:inkscape="http://www.inkscape.org/namespaces/inkscape"
   width="210mm"
   height="297mm"
   viewBox="0 0 210 297"
   version="1.1"
   id="svg8"
   inkscape:version="0.92.1 r15371"
   sodipodi:docname="logo.svg">
  <defs
     id="defs2">
    <inkscape:perspective
       sodipodi:type="inkscape:persp3d"
       inkscape:vp_x="0 : 148.5 : 1"
       inkscape:vp_y="0 : 1000 : 0"
       inkscape:vp_z="210 : 148.5 : 1"
       inkscape:persp3d-origin="105 : 99 : 1"
       id="perspective4489" />
  </defs>
  <sodipodi:namedview
     id="base"
     pagecolor="#ffffff"
     bordercolor="#666666"
     borderopacity="1.0"
     inkscape:pageopacity="0.0"
     inkscape:pageshadow="2"
     inkscape:zoom="0.49497475"
     inkscape:cx="415.41806"
     inkscape:cy="581.94934"
     inkscape:document-units="mm"
     inkscape:current-layer="layer1"
     showgrid="false"
     inkscape:window-width="1366"
     inkscape:window-height="712"
     inkscape:window-x="0"
     inkscape:window-y="0"
     inkscape:window-maximized="1" />
  <metadata
     id="metadata5">
    <rdf:RDF>
      <cc:Work
         rdf:about="">
        <dc:format>image/svg+xml</dc:format>
        <dc:type
           rdf:resource="http://purl.org/dc/dcmitype/StillImage" />
        <dc:title></dc:title>
      </cc:Work>
    </rdf:RDF>
  </metadata>
  <g
     inkscape:label="Camada 1"
     inkscape:groupmode="layer"
     id="layer1">
    <path
       style="fill:#2c5aa0;fill-opacity:1;stroke:#000000;stroke-width:2.35173178;stroke-miterlimit:4;stroke-dasharray:none;stroke-opacity:1"
       id="path4643"
       d="m 82.531876,121.75082 c -0.83551,7.36122 5.52983,11.98412 10.53719,16.0169 8.075704,6.7363 17.534604,11.21732 26.825014,15.83851 5.68033,2.83561 11.69746,4.69855 17.96006,5.42839 1.7782,-0.17581 3.91534,0.62798 5.67521,0.12251 0.33162,-0.0947 1.16835,-0.74953 0.86743,-0.57734 -8.53158,4.88366 -17.04088,9.80838 -25.56132,14.71253 2.38706,-1.14037 2.35811,-4.30692 2.52932,-6.65715 0.0928,-3.71613 0.10112,-7.43635 0.12692,-11.15439 -0.69168,-5.41269 -5.14458,-8.84374 -9.17179,-11.80234 -4.11796,-3.41968 -8.82109,-5.37776 -13.985704,-6.26759 -4.8771,-0.49851 -9.81302,-0.73879 -14.68581,-0.15433 -2.81787,0.69839 -5.67424,1.66788 -8.29029,2.97547 -0.78161,0.3906 -2.99802,1.80991 -2.24267,1.36781 24.04177,-14.0725 31.086584,-19.5293 21.95551,-12.5983 -1.17112,1.00538 -2.12024,2.21774 -3.05029,3.44872 0,0 -27.86689,12.80783 -27.86689,12.80783 v 0 c 0.70986,-1.73004 1.64857,-3.14702 2.9321,-4.51132 8.87709,-9.6665 26.26896,-19.3449 40.685724,-21.85403 5.12959,-0.26968 10.33728,-0.31304 15.39203,0.75351 5.33477,1.42461 10.1276,3.96198 14.46202,7.49602 4.77331,3.64226 9.4838,7.9452 10.83176,14.17456 0.0563,3.7396 0.1548,7.47764 0.0716,11.21796 -0.042,3.1292 -0.0701,6.24539 -1.19489,9.20482 -18.42451,10.76972 -19.87383,18.04709 -34.26747,15.22497 -6.2037,-1.33488 -12.11621,-3.66773 -17.731704,-6.69577 -9.36499,-4.84409 -18.80863,-9.68556 -27.07595,-16.40663 -5.66698,-4.53121 -12.67503,-9.70051 -13.03392,-17.78282 0,0 27.30684,-14.32854 27.30684,-14.32854 z"
       inkscape:connector-curvature="0" />
    <ellipse
       style="fill:#ffdd55;fill-opacity:1;stroke:#d4a000;stroke-width:5.10200024;stroke-miterlimit:4;stroke-dasharray:5.10200003, 15.30600009;stroke-dashoffset:51.02000046;stroke-opacity:1"
       id="path4651"
       cx="143.65959"
       cy="149.10147"
       rx="4.3058634"
       ry="5.262722" />
    <ellipse
       style="fill:#ffdd55;fill-opacity:1;stroke:#d4a000;stroke-width:5.10200024;stroke-miterlimit:4;stroke-dasharray:5.10200003, 15.30600009;stroke-dashoffset:51.02000046;stroke-opacity:1"
       id="path4651-2"
       cx="128.53819"
       cy="156.26355"
       rx="4.3058634"
       ry="5.262722" />
  </g>
</svg>
